<svg width="55" height="54" viewBox="0 0 55 54" fill="none" xmlns="http://www.w3.org/2000/svg">
<g filter="url(#filter0_d_707_5)">
<path d="M22.69 23.5C24.19 23.5 25.405 24.625 25.3775 26C25.3775 27.375 24.1925 28.5 22.69 28.5C21.215 28.5 20 27.375 20 26C20 24.625 21.1875 23.5 22.69 23.5ZM32.31 23.5C33.8125 23.5 35 24.625 35 26C35 27.375 33.8125 28.5 32.31 28.5C30.835 28.5 29.6225 27.375 29.6225 26C29.6225 24.625 30.8075 23.5 32.31 23.5ZM44.7275 1C47.635 1 50 3.415 50 6.4075V53.5L44.4725 48.5125L41.36 45.5725L38.0675 42.4475L39.4325 47.305H10.2725C7.365 47.305 5 44.89 5 41.8975V6.4075C5 3.415 7.365 1 10.2725 1H44.725H44.7275ZM34.8025 35.2825C40.485 35.1 42.6725 31.2925 42.6725 31.2925C42.6725 22.84 38.9675 15.9875 38.9675 15.9875C35.2675 13.155 31.7425 13.2325 31.7425 13.2325L31.3825 13.6525C35.755 15.0175 37.785 16.9875 37.785 16.9875C35.3977 15.6425 32.7666 14.7858 30.045 14.4675C28.3186 14.2725 26.5748 14.2893 24.8525 14.5175C24.6975 14.5175 24.5675 14.545 24.415 14.57C23.515 14.65 21.3275 14.99 18.5775 16.225C17.6275 16.67 17.06 16.9875 17.06 16.9875C17.06 16.9875 19.195 14.9125 23.8225 13.5475L23.565 13.2325C23.565 13.2325 20.0425 13.155 16.34 15.99C16.34 15.99 12.6375 22.84 12.6375 31.2925C12.6375 31.2925 14.7975 35.0975 20.48 35.2825C20.48 35.2825 21.43 34.1025 22.205 33.105C18.9375 32.105 17.705 30.005 17.705 30.005C17.705 30.005 17.96 30.19 18.4225 30.4525C18.4475 30.4775 18.4725 30.505 18.525 30.53C18.6025 30.585 18.68 30.61 18.7575 30.6625C19.4 31.03 20.0425 31.3175 20.6325 31.555C21.6875 31.975 22.9475 32.395 24.415 32.685C26.6133 33.1159 28.8735 33.1244 31.075 32.71C32.3573 32.4811 33.6083 32.1027 34.8025 31.5825C35.7025 31.24 36.705 30.74 37.76 30.0325C37.76 30.0325 36.475 32.185 33.105 33.1575C33.8775 34.155 34.805 35.2825 34.805 35.2825H34.8025Z" fill="#E4E4E4"/>
<path d="M22.69 23.5C24.19 23.5 25.405 24.625 25.3775 26C25.3775 27.375 24.1925 28.5 22.69 28.5C21.215 28.5 20 27.375 20 26C20 24.625 21.1875 23.5 22.69 23.5ZM32.31 23.5C33.8125 23.5 35 24.625 35 26C35 27.375 33.8125 28.5 32.31 28.5C30.835 28.5 29.6225 27.375 29.6225 26C29.6225 24.625 30.8075 23.5 32.31 23.5ZM44.7275 1C47.635 1 50 3.415 50 6.4075V53.5L44.4725 48.5125L41.36 45.5725L38.0675 42.4475L39.4325 47.305H10.2725C7.365 47.305 5 44.89 5 41.8975V6.4075C5 3.415 7.365 1 10.2725 1H44.725H44.7275ZM34.8025 35.2825C40.485 35.1 42.6725 31.2925 42.6725 31.2925C42.6725 22.84 38.9675 15.9875 38.9675 15.9875C35.2675 13.155 31.7425 13.2325 31.7425 13.2325L31.3825 13.6525C35.755 15.0175 37.785 16.9875 37.785 16.9875C35.3977 15.6425 32.7666 14.7858 30.045 14.4675C28.3186 14.2725 26.5748 14.2893 24.8525 14.5175C24.6975 14.5175 24.5675 14.545 24.415 14.57C23.515 14.65 21.3275 14.99 18.5775 16.225C17.6275 16.67 17.06 16.9875 17.06 16.9875C17.06 16.9875 19.195 14.9125 23.8225 13.5475L23.565 13.2325C23.565 13.2325 20.0425 13.155 16.34 15.99C16.34 15.99 12.6375 22.84 12.6375 31.2925C12.6375 31.2925 14.7975 35.0975 20.48 35.2825C20.48 35.2825 21.43 34.1025 22.205 33.105C18.9375 32.105 17.705 30.005 17.705 30.005C17.705 30.005 17.96 30.19 18.4225 30.4525C18.4475 30.4775 18.4725 30.505 18.525 30.53C18.6025 30.585 18.68 30.61 18.7575 30.6625C19.4 31.03 20.0425 31.3175 20.6325 31.555C21.6875 31.975 22.9475 32.395 24.415 32.685C26.6133 33.1159 28.8735 33.1244 31.075 32.71C32.3573 32.4811 33.6083 32.1027 34.8025 31.5825C35.7025 31.24 36.705 30.74 37.76 30.0325C37.76 30.0325 36.475 32.185 33.105 33.1575C33.8775 34.155 34.805 35.2825 34.805 35.2825H34.8025Z" stroke="black"/>
</g>
<defs>
<filter id="filter0_d_707_5" x="0.5" y="0.5" width="54" height="62.1245" filterUnits="userSpaceOnUse" color-interpolation-filters="sRGB">
<feFlood flood-opacity="0" result="BackgroundImageFix"/>
<feColorMatrix in="SourceAlpha" type="matrix" values="0 0 0 0 0 0 0 0 0 0 0 0 0 0 0 0 0 0 127 0" result="hardAlpha"/>
<feOffset dy="4"/>
<feGaussianBlur stdDeviation="2"/>
<feComposite in2="hardAlpha" operator="out"/>
<feColorMatrix type="matrix" values="0 0 0 0 0 0 0 0 0 0 0 0 0 0 0 0 0 0 0.25 0"/>
<feBlend mode="normal" in2="BackgroundImageFix" result="effect1_dropShadow_707_5"/>
<feBlend mode="normal" in="SourceGraphic" in2="effect1_dropShadow_707_5" result="shape"/>
</filter>
</defs>
</svg>
